<svg version="1.1" preserveAspectRatio="none" xmlns="http://www.w3.org/2000/svg" width="500" height="500" viewBox="0 0 500 500"><rect width="100%" height="100%" fill="#212D94" fill-opacity="1"/><svg viewBox="30.14 196.3886 479.8731 180" width="333" height="124.90802255846388" x="83.5px" y="187.546px" xmlns="http://www.w3.org/2000/svg" xmlns:xlink="http://www.w3.org/1999/xlink" preserveAspectRatio="none"><defs></defs><style>.a60p5ZquTEfillColor {fill:#F1F1F1;fill-opacity:0;}.ahs7pIl34ofillColor {fill:#0A0A0A;fill-opacity:0.1;}.background {fill:#212D94;fill-opacity:1;}.companyName {fill:#F1F1F1;fill-opacity:1;}.icon3-str {stroke:#0A0A0A;stroke-opacity:1;}.shapeStroke-str {stroke:#0A0A0A;stroke-opacity:1;}.text-str {stroke:#F1F1F1;stroke-opacity:1;}</style><g opacity="1" transform="rotate(0 30.14 196.3886)">
<svg width="239.9366" height="180" x="30.14" y="196.3886" version="1.1" preserveAspectRatio="none" viewBox="0 0 239.9366 180">
  <defs><rect x="11.25" y="11.25" width="217.4366" height="157.5" rx="0px" ry="0px" id="id-60p5ZquTE1687095975428"></rect></defs><use class="a60p5ZquTEfillColor text-str" style="stroke-width:22.5;" xlink:href="#id-60p5ZquTE1687095975428"></use>
</svg>
</g><g opacity="1" transform="rotate(0 270.0765 196.3886)">
<svg width="239.9366" height="180" x="270.0765" y="196.3886" version="1.1" preserveAspectRatio="none" viewBox="0 0 239.9366 180">
  <defs><rect x="11.25" y="11.25" width="217.4366" height="157.5" rx="0px" ry="0px" id="id-hs7pIl34o1687095975428"></rect></defs><use class="ahs7pIl34ofillColor icon3-str" style="stroke-width:22.5;" xlink:href="#id-hs7pIl34o1687095975428"></use>
</svg>
</g><g opacity="1" transform="rotate(0 40.14 206.3886)">
<svg width="459.8731" height="160" x="40.14" y="206.3886" version="1.1" preserveAspectRatio="none" viewBox="0 0 459.8731 160">
  <defs><rect x="0" y="0" width="459.8731" height="160" rx="0px" ry="0px" id="id-BO9lbzKc31687095975428"></rect></defs><use class="background shapeStroke-str" style="stroke-width:0;" xlink:href="#id-BO9lbzKc31687095975428"></use>
</svg>
</g><g opacity="1" transform="rotate(0 80.14 256.3886)">
<svg width="379.8731" height="60" x="80.14" y="256.3886" version="1.1" preserveAspectRatio="none" viewBox="1.92 -30.12 197.28 31.16">
  <g transform="matrix(1 0 0 1 0 0)" class="companyName"><path id="id-D6z1nYkh8" d="M1.92-29.12L21.40-29.12L21.40-24.64L13.88-24.64L13.88 0L9.24 0L9.24-24.64L1.92-24.64L1.92-29.12Z M29.32-29.12L34-29.12L34-4.48L48.36-4.48L48.36 0L29.32 0L29.32-29.12Z M77.48-2.28Q76.20-1.36 73.94-0.52Q71.68 0.32 69 0.32L69 0.32Q64.48 0.32 61.10-1.66Q57.72-3.64 55.90-6.98Q54.08-10.32 54.08-14.32L54.08-14.32Q54.08-18.68 55.90-22.12Q57.72-25.56 60.98-27.50Q64.24-29.44 68.40-29.44L68.40-29.44Q70.96-29.44 73.14-28.76Q75.32-28.08 77-27.04L77-27.04L75.16-22.68Q71.92-24.96 68.56-24.96L68.56-24.96Q66-24.96 63.78-23.58Q61.56-22.20 60.24-19.82Q58.92-17.44 58.92-14.60L58.92-14.60Q58.92-11.60 60.14-9.22Q61.36-6.84 63.62-5.50Q65.88-4.16 68.84-4.16L68.84-4.16Q70.96-4.16 72.66-4.80Q74.36-5.44 75.52-6.44L75.52-6.44L77.48-2.28Z M121.56-29.12L126.20-29.12L126.20 1.04L126.08 1.04L105.08-19.32L105.20 0L100.48 0L100.48-30.12L100.72-30.12L121.64-9.52L121.56-29.12Z M143.48-3.40Q145.36-3.40 147.28-4.72L147.28-4.72L149.32-1.40Q147.96-0.56 146.40-0.06Q144.84 0.44 143.40 0.44L143.40 0.44Q140.48 0.44 138.34-0.72Q136.20-1.88 135.06-3.92Q133.92-5.96 133.92-8.60L133.92-8.60Q133.92-11.08 135.20-13.16Q136.48-15.24 138.68-16.46Q140.88-17.68 143.48-17.68L143.48-17.68Q146.92-17.68 149.20-15.66Q151.48-13.64 152.24-9.96L152.24-9.96L139.20-5.56Q139.88-4.52 141.00-3.96Q142.12-3.40 143.48-3.40L143.48-3.40ZM143.12-14.16Q141.00-14.16 139.66-12.68Q138.32-11.20 138.32-8.84L138.32-8.84Q138.32-8.40 138.36-8.16L138.36-8.16L147.24-11.32Q146.72-12.56 145.72-13.36Q144.72-14.16 143.12-14.16L143.12-14.16Z M177.16-16.92L181.56-16.92L173.84 1L168.40-10.44L163.44 1L155.64-16.92L160.04-16.92L163.96-7.92L166.80-14.40L165.64-16.92L169.52-16.92L173.52-7.64L177.16-16.92Z M192.32 0.36Q190.36 0.36 188.62-0.34Q186.88-1.04 185.76-2.32L185.76-2.32L187.64-4.84Q189.76-2.76 191.96-2.76L191.96-2.76Q193.16-2.76 193.94-3.22Q194.72-3.68 194.72-4.60L194.72-4.60Q194.72-5.56 193.92-6.04Q193.12-6.52 192.14-6.82Q191.16-7.12 190.88-7.20L190.88-7.20Q188.68-7.88 187.60-9.18Q186.52-10.48 186.52-12.24L186.52-12.24Q186.52-13.64 187.22-14.86Q187.92-16.08 189.34-16.84Q190.76-17.60 192.80-17.60L192.80-17.60Q194.72-17.60 196.14-17.16Q197.56-16.72 198.80-15.76L198.80-15.76L197.08-13.08Q196.36-13.76 195.34-14.16Q194.32-14.56 193.48-14.56L193.48-14.56Q192.44-14.56 191.76-14.08Q191.08-13.60 191.08-12.84L191.08-12.84Q191.04-11.92 191.76-11.46Q192.48-11 194.08-10.48L194.08-10.48Q194.76-10.28 194.96-10.20L194.96-10.20Q196.96-9.56 198.08-8.42Q199.20-7.28 199.20-5.44L199.20-5.44Q199.20-2.96 197.42-1.30Q195.64 0.36 192.32 0.36L192.32 0.36Z"/></g>
</svg>
</g></svg></svg>