<svg version="1.1" preserveAspectRatio="none" xmlns="http://www.w3.org/2000/svg" width="500" height="500" viewBox="0 0 500 500"><rect width="100%" height="100%" fill="#48BBED" fill-opacity="1"/><svg viewBox="128.2509 240.6 343.4982 60" width="333" height="58.166243665905675" x="83.5px" y="220.9169px" xmlns="http://www.w3.org/2000/svg" xmlns:xlink="http://www.w3.org/1999/xlink" preserveAspectRatio="none"><defs></defs><style>.companyName {fill:#F3F3F3;fill-opacity:1;}.icon3-str {stroke:#B2B2B2;stroke-opacity:1;}</style><g opacity="1" transform="rotate(0 128.2509 240.6)">
<svg width="343.4982" height="60" x="128.2509" y="240.6" version="1.1" preserveAspectRatio="none" viewBox="3.12 -29.68 171.51999999999998 29.96">
  <g transform="matrix(1 0 0 1 0 0)" class="companyName"><path id="id-D6z1nYkh8" d="M13.88-4.72L15.28-1.16Q14.40-0.44 13.14-0.08Q11.88 0.28 10.48 0.28L10.48 0.28Q6.96 0.28 5.04-1.56Q3.12-3.40 3.12-6.92L3.12-6.92L3.12-26.08L8.12-26.08L8.12-21.20L13.84-21.20L13.84-17.20L8.12-17.20L8.12-7.04Q8.12-5.48 8.90-4.66Q9.68-3.84 11.08-3.84L11.08-3.84Q12.76-3.84 13.88-4.72L13.88-4.72Z M26.44 0.28Q23.12 0.28 21.26-1.54Q19.40-3.36 19.40-6.68L19.40-6.68L19.40-29.68L24.40-29.68L24.40-7.04Q24.40-3.84 27.40-3.84L27.40-3.84Q28.40-3.84 29.20-4.24L29.20-4.24L29.44-0.24Q28.04 0.28 26.44 0.28L26.44 0.28Z M42.24 0.28Q38.92 0.28 36.28-1.12Q33.64-2.52 32.16-5.02Q30.68-7.52 30.68-10.68L30.68-10.68Q30.68-13.84 32.16-16.32Q33.64-18.80 36.26-20.20Q38.88-21.60 42.24-21.60L42.24-21.60Q45.40-21.60 47.78-20.32Q50.16-19.04 51.36-16.64L51.36-16.64L47.52-14.40Q46.60-15.88 45.22-16.62Q43.84-17.36 42.20-17.36L42.20-17.36Q39.40-17.36 37.56-15.54Q35.72-13.72 35.72-10.68L35.72-10.68Q35.72-7.64 37.54-5.82Q39.36-4 42.20-4L42.20-4Q43.84-4 45.22-4.74Q46.60-5.48 47.52-6.96L47.52-6.96L51.36-4.72Q50.12-2.32 47.74-1.02Q45.36 0.28 42.24 0.28L42.24 0.28Z M78.84-21.60Q82.88-21.60 85.32-19.24Q87.76-16.88 87.76-12.24L87.76-12.24L87.76 0L82.76 0L82.76-11.60Q82.76-14.40 81.44-15.82Q80.12-17.24 77.68-17.24L77.68-17.24Q74.92-17.24 73.32-15.58Q71.72-13.92 71.72-10.80L71.72-10.80L71.72 0L66.72 0L66.72-21.36L71.48-21.36L71.48-18.60Q72.72-20.08 74.60-20.84Q76.48-21.60 78.84-21.60L78.84-21.60Z M104.48-3.96Q107.96-3.96 110.28-6.28L110.28-6.28L112.92-3.20Q111.52-1.48 109.32-0.60Q107.12 0.28 104.36 0.28L104.36 0.28Q100.84 0.28 98.16-1.12Q95.48-2.52 94.02-5.02Q92.56-7.52 92.56-10.68L92.56-10.68Q92.56-13.80 93.98-16.30Q95.40-18.80 97.90-20.20Q100.40-21.60 103.56-21.60L103.56-21.60Q106.56-21.60 109.02-20.30Q111.48-19 112.92-16.58Q114.36-14.16 114.36-10.92L114.36-10.92L98-7.72Q98.76-5.88 100.44-4.92Q102.12-3.96 104.48-3.96L104.48-3.96ZM103.56-17.60Q100.80-17.60 99.10-15.80Q97.40-14 97.40-10.96L97.40-10.96L97.40-10.92L109.48-13.24Q108.96-15.20 107.38-16.40Q105.80-17.60 103.56-17.60L103.56-17.60Z M147-21.36L152-21.36L152-9.56Q152-4.88 149.56-2.30Q147.12 0.28 142.56 0.28L142.56 0.28Q137.64 0.28 135.48-3.04L135.48-3.04Q134.36-1.36 132.62-0.54Q130.88 0.28 128.40 0.28L128.40 0.28Q123.84 0.28 121.42-2.30Q119.00-4.88 119.00-9.56L119.00-9.56L119.00-21.36L124.00-21.36L124.00-10Q124.00-6.96 125.06-5.52Q126.12-4.08 128.44-4.08L128.44-4.08Q130.76-4.08 131.88-5.54Q133-7 133-10L133-10L133-21.36L138-21.36L138-10Q138-7 139.12-5.54Q140.24-4.08 142.56-4.08L142.56-4.08Q144.88-4.08 145.94-5.52Q147-6.96 147-10L147-10L147-21.36Z M164.96 0.28Q162.36 0.28 159.88-0.40Q157.40-1.08 155.92-2.12L155.92-2.12L157.84-5.92Q159.28-4.96 161.30-4.38Q163.32-3.80 165.28-3.80L165.28-3.80Q169.76-3.80 169.76-6.16L169.76-6.16Q169.76-7.28 168.62-7.72Q167.48-8.16 164.96-8.56L164.96-8.56Q162.32-8.96 160.66-9.48Q159-10 157.78-11.30Q156.56-12.60 156.56-14.92L156.56-14.92Q156.56-17.96 159.10-19.78Q161.64-21.60 165.96-21.60L165.96-21.60Q168.16-21.60 170.36-21.10Q172.56-20.60 173.96-19.76L173.96-19.76L172.04-15.96Q169.32-17.56 165.92-17.56L165.92-17.56Q163.72-17.56 162.58-16.90Q161.44-16.24 161.44-15.16L161.44-15.16Q161.44-13.96 162.66-13.46Q163.88-12.96 166.44-12.52L166.44-12.52Q169-12.12 170.64-11.60Q172.28-11.08 173.46-9.84Q174.64-8.60 174.64-6.32L174.64-6.32Q174.64-3.32 172.04-1.52Q169.44 0.28 164.96 0.28L164.96 0.28Z"/></g>
</svg>
</g></svg></svg>