<svg version="1.1" preserveAspectRatio="none" xmlns="http://www.w3.org/2000/svg" width="500" height="500" viewBox="0 0 500 500"><rect width="100%" height="100%" fill="#0C2A43" fill-opacity="1"/><svg viewBox="46.1368 262.2 858.1724 120" width="333" height="46.56407034297537" x="83.5px" y="226.718px" xmlns="http://www.w3.org/2000/svg" xmlns:xlink="http://www.w3.org/1999/xlink" preserveAspectRatio="none"><defs></defs><style>.companyName {fill:#F3F0ED;fill-opacity:1;}.icon3 {fill:#ED4545;fill-opacity:1;}.icon3-str {stroke:#ED4545;stroke-opacity:1;}</style><g opacity="1" transform="rotate(0 46.1368 262.2)">
<svg width="317.0677" height="120" x="46.1368" y="262.2" version="1.1" preserveAspectRatio="none" viewBox="0.16 -28.48 76.52000000000001 28.96">
  <g transform="matrix(1 0 0 1 0 0)" class="companyName"><path id="id-D6z1nYkh3" d="M9.12 0L9.12-22.72L0.16-22.72L0.16-28L24.56-28L24.56-22.72L15.60-22.72L15.60 0L9.12 0Z M28.04 0L28.04-28L34.52-28L34.52-5.28L48.56-5.28L48.56 0L28.04 0Z M65.12 0.48Q60.84 0.48 57.38-1.38Q53.92-3.24 51.94-6.54Q49.96-9.84 49.96-14L49.96-14Q49.96-18.16 51.94-21.46Q53.92-24.76 57.38-26.62Q60.84-28.48 65.16-28.48L65.16-28.48Q68.80-28.48 71.74-27.20Q74.68-25.92 76.68-23.52L76.68-23.52L72.52-19.68Q69.68-22.96 65.48-22.96L65.48-22.96Q62.88-22.96 60.84-21.82Q58.80-20.68 57.66-18.64Q56.52-16.60 56.52-14L56.52-14Q56.52-11.40 57.66-9.36Q58.80-7.32 60.84-6.18Q62.88-5.04 65.48-5.04L65.48-5.04Q69.68-5.04 72.52-8.36L72.52-8.36L76.68-4.52Q74.68-2.08 71.72-0.80Q68.76 0.48 65.12 0.48L65.12 0.48Z"/></g>
</svg>
</g><g opacity="1" transform="rotate(0 383.2045 262.2)">
<svg width="521.1047" height="120" x="383.2045" y="262.2" version="1.1" preserveAspectRatio="none" viewBox="3.32 -28.48 125.75999999999999 28.96">
  <g transform="matrix(1 0 0 1 0 0)" class="icon3"><path id="id--VpF9B9iX4" d="M22.60-28L29-28L29 0L23.68 0L9.72-17L9.72 0L3.32 0L3.32-28L8.68-28L22.60-11L22.60-28Z M42.08-5.20L57.32-5.20L57.32 0L35.64 0L35.64-28L56.80-28L56.80-22.80L42.08-22.80L42.08-16.72L55.08-16.72L55.08-11.68L42.08-11.68L42.08-5.20Z M98.20-28L104.40-28L95.24 0L88.28 0L82.12-18.96L75.76 0L68.84 0L59.64-28L66.36-28L72.68-8.32L79.28-28L85.28-28L91.68-8.16L98.20-28Z M117.20 0.48Q113.88 0.48 110.78-0.42Q107.68-1.32 105.80-2.76L105.80-2.76L108-7.64Q109.80-6.32 112.28-5.52Q114.76-4.72 117.24-4.72L117.24-4.72Q120-4.72 121.32-5.54Q122.64-6.36 122.64-7.72L122.64-7.72Q122.64-8.72 121.86-9.38Q121.08-10.04 119.86-10.44Q118.64-10.84 116.56-11.32L116.56-11.32Q113.36-12.08 111.32-12.84Q109.28-13.60 107.82-15.28Q106.36-16.96 106.36-19.76L106.36-19.76Q106.36-22.20 107.68-24.18Q109-26.16 111.66-27.32Q114.32-28.48 118.16-28.48L118.16-28.48Q120.84-28.48 123.40-27.84Q125.96-27.20 127.88-26L127.88-26L125.88-21.08Q122-23.28 118.12-23.28L118.12-23.28Q115.40-23.28 114.10-22.40Q112.80-21.52 112.80-20.08L112.80-20.08Q112.80-18.64 114.30-17.94Q115.80-17.24 118.88-16.56L118.88-16.56Q122.08-15.80 124.12-15.04Q126.16-14.28 127.62-12.64Q129.08-11 129.08-8.20L129.08-8.20Q129.08-5.80 127.74-3.82Q126.40-1.84 123.72-0.68Q121.04 0.48 117.20 0.48L117.20 0.48Z"/></g>
</svg>
</g></svg></svg>