<svg version="1.1" preserveAspectRatio="none" xmlns="http://www.w3.org/2000/svg" width="500" height="500" viewBox="0 0 500 500"><rect width="100%" height="100%" fill="#E71616" fill-opacity="1"/><svg viewBox="87.2303 119.9241 290.0489 220" width="333" height="252.5780997617988" x="83.5px" y="123.711px" xmlns="http://www.w3.org/2000/svg" xmlns:xlink="http://www.w3.org/1999/xlink" preserveAspectRatio="none"><defs></defs><style>.atBXipXk0bfillColor {fill:#FBFBFB;fill-opacity:0;}.companyName {fill:#FBFBFB;fill-opacity:1;}.icon3-str {stroke:#277B27;stroke-opacity:1;}.shapeStroke-str {stroke:#FBFBFB;stroke-opacity:1;}</style><g opacity="1" transform="rotate(0 87.2303 119.9241)">
<svg width="290.0489" height="220" x="87.2303" y="119.9241" version="1.1" preserveAspectRatio="none" viewBox="0 0 290.0489 220">
  <defs><rect x="4.4" y="4.4" width="281.2489" height="211.2" rx="14px" ry="14px" id="id-tBXipXk0b1687095832872"></rect></defs><use class="atBXipXk0bfillColor shapeStroke-str" style="stroke-width:8.8;" xlink:href="#id-tBXipXk0b1687095832872"></use>
</svg>
</g><g opacity="1" transform="rotate(0 107.2303 139.9241)">
<svg width="250.0489" height="180" x="107.2303" y="139.9241" version="1.1" preserveAspectRatio="none" viewBox="4 -31.64 102.52 73.8">
  <g transform="matrix(1 0 0 1 0 0)" class="companyName"><path id="id-D6z1nYkh7" d="M27.32-31.24Q28.16-31.24 28.70-30.70Q29.24-30.16 29.24-29.32L29.24-29.32Q29.24-28.48 28.70-27.94Q28.16-27.40 27.32-27.40L27.32-27.40L18.72-27.40L18.72-2.08Q18.72-1.20 18.12-0.60Q17.52 0 16.64 0L16.64 0Q15.76 0 15.16-0.60Q14.56-1.20 14.56-2.08L14.56-2.08L14.56-27.40L5.92-27.40Q5.08-27.40 4.54-27.94Q4.00-28.48 4.00-29.32L4.00-29.32Q4.00-30.16 4.54-30.70Q5.08-31.24 5.92-31.24L5.92-31.24L27.32-31.24Z M52.44-4.16Q53.32-4.16 53.92-3.56Q54.52-2.96 54.52-2.08L54.52-2.08Q54.52-1.20 53.92-0.60Q53.32 0 52.44 0L52.44 0L35.88 0Q35 0 34.42-0.60Q33.84-1.20 33.84-2.08L33.84-2.08L33.84-29.16Q33.84-30.04 34.44-30.64Q35.04-31.24 35.88-31.24L35.88-31.24Q36.76-31.24 37.36-30.64Q37.96-30.04 37.96-29.16L37.96-29.16L37.96-4.16L52.44-4.16Z M70.72-31.64Q73.76-31.64 75.98-30.84Q78.20-30.04 80.48-28.20L80.48-28.20Q80.96-27.84 81.12-27.46Q81.28-27.08 81.28-26.56L81.28-26.56Q81.28-25.76 80.70-25.24Q80.12-24.72 79.36-24.72L79.36-24.72Q78.60-24.72 77.96-25.24L77.96-25.24Q76.32-26.64 74.76-27.26Q73.20-27.88 70.72-27.88L70.72-27.88Q67.60-27.88 64.98-26.24Q62.36-24.60 60.82-21.78Q59.28-18.96 59.28-15.64L59.28-15.64Q59.28-12.28 60.82-9.48Q62.36-6.68 64.98-5.04Q67.60-3.40 70.72-3.40L70.72-3.40Q74.56-3.40 78.08-6.04L78.08-6.04Q78.76-6.52 79.40-6.52L79.40-6.52Q80.16-6.52 80.66-5.98Q81.16-5.44 81.16-4.56L81.16-4.56Q81.16-3.72 80.52-3.08L80.52-3.08Q76.20 0.40 70.72 0.40L70.72 0.40Q66.44 0.40 62.90-1.72Q59.36-3.84 57.32-7.52Q55.28-11.20 55.28-15.64L55.28-15.64Q55.28-20.04 57.32-23.70Q59.36-27.36 62.90-29.50Q66.44-31.64 70.72-31.64L70.72-31.64Z M25.08 12.84Q25.08 11.92 25.68 11.34Q26.28 10.76 27.16 10.76L27.16 10.76Q28.04 10.76 28.62 11.34Q29.20 11.92 29.20 12.84L29.20 12.84L29.20 39.92Q29.20 40.84 28.62 41.42Q28.04 42 27.16 42L27.16 42Q26.72 42 26.26 41.82Q25.80 41.64 25.56 41.28L25.56 41.28L8.12 18.08L8.12 39.92Q8.12 40.80 7.54 41.40Q6.96 42 6.04 42L6.04 42Q5.16 42 4.58 41.42Q4 40.84 4 39.92L4 39.92L4 12.84Q4 11.92 4.58 11.34Q5.16 10.76 6.04 10.76L6.04 10.76Q6.48 10.76 6.92 10.98Q7.36 11.20 7.64 11.52L7.64 11.52L25.08 34.72L25.08 12.84Z M56.44 30.72Q56.44 31.48 55.92 31.98Q55.40 32.48 54.60 32.48L54.60 32.48L39.40 32.48Q39.84 35.28 41.94 37Q44.04 38.72 47.08 38.72L47.08 38.72Q48.28 38.72 49.58 38.28Q50.88 37.84 51.72 37.20L51.72 37.20Q52.28 36.76 53.04 36.76L53.04 36.76Q53.80 36.76 54.24 37.16L54.24 37.16Q54.96 37.76 54.96 38.52L54.96 38.52Q54.96 39.24 54.32 39.72L54.32 39.72Q52.96 40.80 50.94 41.48Q48.92 42.16 47.08 42.16L47.08 42.16Q43.80 42.16 41.20 40.74Q38.60 39.32 37.14 36.80Q35.68 34.28 35.68 31.08L35.68 31.08Q35.68 27.88 37.06 25.34Q38.44 22.80 40.90 21.38Q43.36 19.96 46.48 19.96L46.48 19.96Q49.56 19.96 51.80 21.32Q54.04 22.68 55.24 25.12Q56.44 27.56 56.44 30.72L56.44 30.72ZM46.48 23.40Q43.56 23.40 41.74 25Q39.92 26.60 39.44 29.28L39.44 29.28L52.76 29.28Q52.40 26.60 50.76 25Q49.12 23.40 46.48 23.40L46.48 23.40Z M84.08 20.12Q84.92 20.12 85.34 20.56Q85.76 21 85.76 21.76L85.76 21.76Q85.76 22.40 85.56 22.92L85.56 22.92L79.64 40.68Q79.44 41.24 78.92 41.62Q78.40 42 77.76 42L77.76 42Q77.08 42 76.54 41.62Q76.00 41.24 75.84 40.68L75.84 40.68L71.92 26.16L67.80 40.68Q67.60 41.24 67.06 41.62Q66.52 42 65.88 42L65.88 42Q65.24 42 64.70 41.62Q64.16 41.24 63.96 40.68L63.96 40.68L58.04 22.92Q57.88 22.40 57.88 21.80L57.88 21.80Q57.88 20.12 59.56 20.12L59.56 20.12Q60.32 20.12 60.82 20.56Q61.32 21 61.64 21.96L61.64 21.96L65.96 35.44L70.04 21.64Q70.24 20.96 70.74 20.54Q71.24 20.12 72.04 20.12L72.04 20.12Q72.80 20.12 73.30 20.54Q73.80 20.96 74.00 21.64L74.00 21.64L77.60 35.72L82.00 21.96Q82.56 20.12 84.08 20.12L84.08 20.12Z M97.64 19.96Q100.24 19.96 102.30 20.80Q104.36 21.64 105.56 23.12L105.56 23.12Q106.08 23.76 106.08 24.40L106.08 24.40Q106.08 25.08 105.40 25.64L105.40 25.64Q104.96 25.96 104.28 25.96L104.28 25.96Q103.24 25.96 102.40 25.20L102.40 25.20Q101.40 24.28 100.28 23.90Q99.16 23.52 97.56 23.52L97.56 23.52Q95.72 23.52 94.54 24.14Q93.36 24.76 93.36 25.88L93.36 25.88Q93.36 26.68 93.76 27.22Q94.16 27.76 95.28 28.22Q96.40 28.68 98.52 29.12L98.52 29.12Q102.88 30 104.70 31.56Q106.52 33.12 106.52 35.60L106.52 35.60Q106.52 37.44 105.52 38.94Q104.52 40.44 102.58 41.30Q100.64 42.16 97.92 42.16L97.92 42.16Q95.20 42.16 92.80 41.32Q90.40 40.48 89.04 39.12L89.04 39.12Q88.52 38.60 88.52 37.88L88.52 37.88Q88.52 36.92 89.32 36.32L89.32 36.32Q90.08 35.76 90.72 35.76L90.72 35.76Q91.52 35.76 92.24 36.48L92.24 36.48Q93.00 37.32 94.52 37.94Q96.04 38.56 97.76 38.56L97.76 38.56Q100.04 38.56 101.30 37.80Q102.56 37.04 102.56 35.76L102.56 35.76Q102.56 34.52 101.32 33.70Q100.08 32.88 97.12 32.32L97.12 32.32Q89.44 30.84 89.44 26L89.44 26Q89.44 24.04 90.60 22.68Q91.76 21.32 93.64 20.64Q95.52 19.96 97.64 19.96L97.64 19.96Z"/></g>
</svg>
</g></svg></svg>