<svg version="1.1" preserveAspectRatio="none" xmlns="http://www.w3.org/2000/svg" width="500" height="500" viewBox="0 0 500 500"><rect width="100%" height="100%" fill="#262626" fill-opacity="1"/><svg viewBox="49.8393 220 425.3875 130" width="333" height="101.76603684875555" x="83.5px" y="199.117px" xmlns="http://www.w3.org/2000/svg" xmlns:xlink="http://www.w3.org/1999/xlink" preserveAspectRatio="none"><defs></defs><style>.ag5fOcfGctfillColor {fill:#31413D;fill-opacity:0;}.background {fill:#262626;fill-opacity:1;}.companyName {fill:#EFE1DD;fill-opacity:1;}.icon3-str {stroke:#B29C96;stroke-opacity:1;}.shapeStroke-str {stroke:#1E1E1E;stroke-opacity:1;}.text-str {stroke:#EFE1DD;stroke-opacity:1;}</style><g opacity="1" transform="rotate(0 49.8393 220)">
<svg width="425.3875" height="130" x="49.8393" y="220" version="1.1" preserveAspectRatio="none" viewBox="0 0 425.3875 130">
  <defs><rect x="0.65" y="0.65" width="424.0875" height="128.7" rx="0px" ry="0px" id="id-g5fOcfGct1687095806090"></rect></defs><use class="ag5fOcfGctfillColor text-str" style="stroke-width:1.3;" xlink:href="#id-g5fOcfGct1687095806090"></use>
</svg>
</g><g opacity="1" transform="rotate(0 59.8393 230)">
<svg width="405.3875" height="110" x="59.8393" y="230" version="1.1" preserveAspectRatio="none" viewBox="0 0 405.3875 110">
  <defs><rect x="0" y="0" width="405.3875" height="110" rx="0%" ry="0%" id="id-UPl23ini1687095806091"></rect></defs><use class="companyName shapeStroke-str" style="stroke-width:0;" xlink:href="#id-UPl23ini1687095806091"></use>
</svg>
</g><g opacity="1" transform="rotate(0 89.8393 260)">
<svg width="345.3875" height="50" x="89.8393" y="260" version="1.1" preserveAspectRatio="none" viewBox="0.92 -28.88 203.36 29.44">
  <g transform="matrix(1 0 0 1 0 0)" class="background"><path id="id-D6z1nYkh8" d="M27.04-28.32Q26.76-23.88 26.76-20.40L26.76-20.40Q26.76-18.56 26.88-17.52L26.88-17.52L25.96-17.52Q24.64-22.76 22.56-25.08Q20.48-27.40 18.08-27.40L18.08-27.40L18.04-27.40L18.04-4.52Q18.04-2.84 18.38-2.08Q18.72-1.32 19.62-1.06Q20.52-0.80 22.48-0.80L22.48-0.80L22.48 0Q16.84-0.12 13.72-0.12L13.72-0.12Q10.88-0.12 5.48 0L5.48 0L5.48-0.80Q7.44-0.80 8.34-1.06Q9.24-1.32 9.58-2.08Q9.92-2.84 9.92-4.52L9.92-4.52L9.92-27.40L9.88-27.40Q7.44-27.40 5.38-25.10Q3.32-22.80 2-17.52L2-17.52L1.08-17.52Q1.20-18.56 1.20-20.40L1.20-20.40Q1.20-23.88 0.92-28.32L0.92-28.32Q4.72-28.20 14-28.20L14-28.20Q23.24-28.20 27.04-28.32L27.04-28.32Z M43.28-28.32L43.28-27.52Q41.84-27.44 41.18-27.20Q40.52-26.96 40.28-26.28Q40.04-25.60 40.04-24.08L40.04-24.08L40.04-3.44Q40.04-2.32 40.20-1.80Q40.36-1.28 40.76-1.10Q41.16-0.92 42.08-0.92L42.08-0.92L43.40-0.92Q44.80-0.92 46.44-2.32Q48.08-3.72 49.40-6.02Q50.72-8.32 51.16-10.80L51.16-10.80L52.08-10.80Q51.96-9.36 51.96-7.12L51.96-7.12Q51.96-2.80 52.24 0L52.24 0Q49.52-0.12 43.08-0.12L43.08-0.12Q33.72-0.12 29.08 0L29.08 0L29.08-0.80Q30.36-0.88 30.94-1.12Q31.52-1.36 31.72-2.04Q31.92-2.72 31.92-4.24L31.92-4.24L31.92-24.08Q31.92-25.60 31.70-26.28Q31.48-26.96 30.92-27.20Q30.36-27.44 29.08-27.52L29.08-27.52L29.08-28.32Q31.36-28.20 36.20-28.20L36.20-28.20Q40.80-28.20 43.28-28.32L43.28-28.32Z M69.56-28.88Q71.96-28.88 73.64-28.20Q75.32-27.52 76.92-26.28L76.92-26.28Q77.32-25.92 77.68-25.92L77.68-25.92Q78.48-25.92 78.72-28.32L78.72-28.32L79.64-28.32Q79.48-25.48 79.48-18.32L79.48-18.32L78.56-18.32Q78.28-21.52 77.52-23.36Q76.76-25.20 74.88-26.44L74.88-26.44Q73-27.64 71.16-27.64L71.16-27.64Q67-27.64 65.32-23.64Q63.64-19.64 63.64-14.08L63.64-14.08Q63.64-8.52 65.32-4.52Q67-0.52 71.16-0.52L71.16-0.52Q73-0.52 74.88-1.72L74.88-1.72Q76.76-2.88 77.52-4.84Q78.28-6.80 78.56-10.40L78.56-10.40L79.48-10.40Q79.48-2.92 79.64 0L79.64 0L78.72 0Q78.60-1.28 78.38-1.82Q78.16-2.36 77.76-2.36L77.76-2.36Q77.44-2.36 76.92-2.04L76.92-2.04Q75.12-0.76 73.48-0.10Q71.84 0.56 69.52 0.56L69.52 0.56Q65 0.56 61.60-1.16Q58.20-2.88 56.32-6.14Q54.44-9.40 54.44-13.92L54.44-13.92Q54.44-18.32 56.36-21.72Q58.28-25.12 61.72-27Q65.16-28.88 69.56-28.88L69.56-28.88Z M118.92-28.32L118.92-27.52Q117.68-27.24 117.08-26.66Q116.48-26.08 116.28-24.88Q116.08-23.68 116.08-21.28L116.08-21.28L116.08 0Q115.28-0.08 114.76-0.08L114.76-0.08Q114.32-0.08 113.28 0L113.28 0L95.56-19.36L95.56-7.84Q95.56-4.88 95.80-3.58Q96.04-2.28 96.86-1.68Q97.68-1.08 99.60-0.80L99.60-0.80L99.60 0Q97.96-0.12 95.12-0.12L95.12-0.12Q93.00-0.12 91.80 0L91.80 0L91.80-0.80Q93.04-1.08 93.64-1.66Q94.24-2.24 94.44-3.44Q94.64-4.64 94.64-7.04L94.64-7.04L94.64-24.08Q94.64-25.60 94.42-26.28Q94.20-26.96 93.64-27.20Q93.08-27.44 91.80-27.52L91.80-27.52L91.80-28.32Q93.00-28.20 95.12-28.20L95.12-28.20Q97.28-28.20 98.80-28.32L98.80-28.32L115.16-11.04L115.16-20.48Q115.16-23.44 114.92-24.74Q114.68-26.04 113.86-26.64Q113.04-27.24 111.12-27.52L111.12-27.52L111.12-28.32Q112.76-28.20 115.60-28.20L115.60-28.20Q117.72-28.20 118.92-28.32L118.92-28.32Z M142.52-5.52Q142.52-3.08 142.80 0L142.80 0Q140.20-0.12 134.04-0.12L134.04-0.12Q125.24-0.12 120.84 0L120.84 0L120.84-0.80Q122.12-0.88 122.70-1.12Q123.28-1.36 123.48-2.04Q123.68-2.72 123.68-4.24L123.68-4.24L123.68-20.08Q123.68-21.60 123.46-22.28Q123.24-22.96 122.68-23.20Q122.12-23.44 120.84-23.52L120.84-23.52L120.84-24.32Q125.24-24.20 134.04-24.20L134.04-24.20Q139.64-24.20 142-24.32L142-24.32Q141.72-21.48 141.72-19.20L141.72-19.20Q141.72-17.64 141.84-16.72L141.84-16.72L140.92-16.72Q140.12-20.28 138.38-21.84Q136.64-23.40 133.96-23.40L133.96-23.40L133.44-23.40Q132.32-23.40 131.86-23Q131.40-22.60 131.40-21.28L131.40-21.28L131.40-12.64L132.32-12.64Q134.24-12.64 135.38-14.02Q136.52-15.40 136.84-17.12L136.84-17.12L137.76-17.12Q137.64-15.76 137.64-13.92L137.64-13.92L137.64-12.24Q137.64-10.28 137.88-7.36L137.88-7.36L136.96-7.36Q136.68-9.28 135.48-10.56Q134.28-11.84 132.32-11.84L132.32-11.84L131.40-11.84L131.40-3.04Q131.40-1.72 131.86-1.32Q132.32-0.92 133.44-0.92L133.44-0.92L134.36-0.92Q137.16-0.92 139.02-2.66Q140.88-4.40 141.72-8.40L141.72-8.40L142.64-8.40Q142.52-7.28 142.52-5.52L142.52-5.52Z M179.44-24.20Q181.32-24.20 182.52-24.32L182.52-24.32L182.52-23.52Q181.48-23 180.44-21.64Q179.40-20.28 178.52-17.92L178.52-17.92L171.92 0Q171.48-0.08 170.60-0.08L170.60-0.08Q169.72-0.08 169.28 0L169.28 0L163.36-14.40L157.88 0Q157.44-0.08 156.56-0.08L156.56-0.08Q155.68-0.08 155.24 0L155.24 0L145.84-20.96Q144.64-23.44 143.48-23.52L143.48-23.52L143.48-24.32Q145.52-24.20 149.36-24.20L149.36-24.20Q153.64-24.20 155.68-24.32L155.68-24.32L155.68-23.52Q155-23.44 154.60-22.98Q154.20-22.52 154.20-21.76L154.20-21.76Q154.20-21.08 154.56-20.16L154.56-20.16L159.80-7.76L162.88-15.60L160.68-20.96Q160.20-22.16 159.56-22.82Q158.92-23.48 158.32-23.52L158.32-23.52L158.32-24.32Q160.36-24.20 164.20-24.20L164.20-24.20Q168.76-24.20 170.92-24.32L170.92-24.32L170.92-23.52Q169.72-23.44 169.18-23.06Q168.64-22.68 168.64-21.88L168.64-21.88Q168.64-21.24 169-20.16L169-20.16L173.64-7.52L176.04-14Q177.44-17.80 177.44-20L177.44-20Q177.44-23.40 174.20-23.52L174.20-23.52L174.20-24.32Q177.20-24.20 179.44-24.20L179.44-24.20Z M193.96-24.88Q197.32-24.88 200.04-23.40L200.04-23.40Q200.48-23.16 200.82-23Q201.16-22.84 201.40-22.84L201.40-22.84Q201.76-22.84 201.96-23.26Q202.16-23.68 202.28-24.60L202.28-24.60L203.20-24.60Q203-22 203-15.64L203-15.64L202.08-15.64Q201.52-19.72 199.46-21.82Q197.40-23.92 194.40-23.92L194.40-23.92Q192.48-23.92 191.36-23.20Q190.24-22.48 190.24-21.32L190.24-21.32Q190.24-20.28 191-19.34Q191.76-18.40 192.96-17.56Q194.16-16.72 196.76-15.08L196.76-15.08Q199.16-13.68 200.68-12.54Q202.20-11.40 203.24-9.82Q204.28-8.24 204.28-6.24L204.28-6.24Q204.28-2.96 201.28-1.20Q198.28 0.56 193.28 0.56L193.28 0.56Q191.36 0.56 189.96 0.14Q188.56-0.28 186.64-1.04L186.64-1.04Q185.56-1.48 185.24-1.48L185.24-1.48Q184.88-1.48 184.68-1.06Q184.48-0.64 184.36 0.28L184.36 0.28L183.44 0.28Q183.60-2.12 183.60-10.12L183.60-10.12L184.52-10.12Q184.84-5.48 187.04-2.96Q189.24-0.44 193-0.44L193-0.44Q194.68-0.44 195.90-1.20Q197.12-1.96 197.12-3.52L197.12-3.52Q197.12-4.96 196.04-6.04Q194.96-7.12 192.20-8.84L192.20-8.84Q188.04-11.32 185.84-13.46Q183.64-15.60 183.64-18.24L183.64-18.24Q183.64-21.48 186.48-23.18Q189.32-24.88 193.96-24.88L193.96-24.88Z"/></g>
</svg>
</g></svg></svg>