<svg version="1.1" preserveAspectRatio="none" xmlns="http://www.w3.org/2000/svg" width="500" height="500" viewBox="0 0 500 500"><rect width="100%" height="100%" fill="#0B0633" fill-opacity="1"/><svg viewBox="104.6493 160.711 341.6258 150" width="333" height="146.21261040588854" x="83.5px" y="176.8937px" xmlns="http://www.w3.org/2000/svg" xmlns:xlink="http://www.w3.org/1999/xlink" preserveAspectRatio="none"><defs></defs><style>.companyName {fill:#F5F4F4;fill-opacity:1;}.icon1 {fill:#FF4949;fill-opacity:1;}.icon2 {fill:#4F53FF;fill-opacity:1;}.icon3 {fill:#EB63DD;fill-opacity:1;}.icon3-str {stroke:#EB63DD;stroke-opacity:1;}.shapeStroke-str {stroke:#313131;stroke-opacity:1;}</style><g opacity="1" transform="rotate(0 104.6493 175.711)">
<svg width="120" height="120" x="104.6493" y="175.711" version="1.1" preserveAspectRatio="none" viewBox="20 20 160 160">
  <g transform="matrix(1 0 0 1 0 0)" ><g><path d="M177.5 152.5h-50a2.5 2.5 0 1 1 0-5H175V55H25v92.5h47.5a2.5 2.5 0 1 1 0 5h-50A2.5 2.5 0 0 1 20 150V52.5a2.5 2.5 0 0 1 2.5-2.5h155a2.5 2.5 0 0 1 2.5 2.5V150a2.5 2.5 0 0 1-2.5 2.5z" data-color="1" class="icon1"></path><path d="M42.5 45c-4.135 0-7.5-3.365-7.5-7.5s3.365-7.5 7.5-7.5 7.5 3.365 7.5 7.5-3.365 7.5-7.5 7.5zm0-10a2.503 2.503 0 0 0-2.5 2.5c0 1.378 1.122 2.5 2.5 2.5s2.5-1.122 2.5-2.5c0-1.379-1.122-2.5-2.5-2.5z" data-color="1" class="icon1"></path><path d="M62.5 45c-4.135 0-7.5-3.365-7.5-7.5s3.365-7.5 7.5-7.5 7.5 3.365 7.5 7.5-3.365 7.5-7.5 7.5zm0-10a2.503 2.503 0 0 0-2.5 2.5c0 1.378 1.122 2.5 2.5 2.5s2.5-1.122 2.5-2.5c0-1.379-1.122-2.5-2.5-2.5z" data-color="1" class="icon1"></path><path d="M82.5 45c-4.135 0-7.5-3.365-7.5-7.5s3.365-7.5 7.5-7.5 7.5 3.365 7.5 7.5-3.365 7.5-7.5 7.5zm0-10a2.503 2.503 0 0 0-2.5 2.5c0 1.378 1.122 2.5 2.5 2.5s2.5-1.122 2.5-2.5c0-1.379-1.122-2.5-2.5-2.5z" data-color="1" class="icon1"></path><path d="M177.5 55a2.5 2.5 0 0 1-2.5-2.5v-20c0-4.135-3.365-7.5-7.5-7.5h-135c-4.135 0-7.5 3.365-7.5 7.5v20a2.5 2.5 0 1 1-5 0v-20C20 25.608 25.608 20 32.5 20h135c6.892 0 12.5 5.608 12.5 12.5v20a2.5 2.5 0 0 1-2.5 2.5z" data-color="1" class="icon1"></path><path d="M105.833 180c-.85 0-1.678-.433-2.147-1.215l-10.159-16.94-9.427 7.852a2.501 2.501 0 0 1-4.1-1.921V125a2.501 2.501 0 0 1 3.887-2.08l35 23.33a2.5 2.5 0 0 1-.7 4.483l-10.481 2.998 9.993 16.652a2.501 2.501 0 0 1-.858 3.43l-9.727 5.83a2.473 2.473 0 0 1-1.281.357zM94.17 155.556a2.501 2.501 0 0 1 2.144 1.214l10.374 17.3 5.437-3.259-10.383-17.301a2.5 2.5 0 0 1 1.456-3.69l8.417-2.408L85 129.671v32.769l7.57-6.305a2.5 2.5 0 0 1 1.6-.579z" data-color="1" class="icon1"></path><path d="M60 87.5a2.504 2.504 0 0 1-1.768-.732l-7.5-7.5a2.501 2.501 0 0 1 3.536-3.536l5.278 5.278L70.38 63.675a2.5 2.5 0 1 1 4.24 2.65l-12.5 20A2.5 2.5 0 0 1 60 87.5z" data-color="1" class="icon1"></path><path d="M157.5 67.5H82.52a2.5 2.5 0 1 1 0-5h74.98a2.5 2.5 0 1 1 0 5z" data-color="1" class="icon1"></path><path d="M140 77.5H82.5a2.5 2.5 0 1 1 0-5H140a2.5 2.5 0 1 1 0 5z" data-color="1" class="icon1"></path><path d="M157.5 109.99H82.52a2.5 2.5 0 1 1 0-5h74.98a2.5 2.5 0 1 1 0 5z" data-color="1" class="icon1"></path><path d="M146.255 130H105a2.5 2.5 0 1 1 0-5h41.255a2.5 2.5 0 1 1 0 5z" data-color="1" class="icon1"></path><path d="M157.5 120h-65a2.5 2.5 0 1 1 0-5h65a2.5 2.5 0 1 1 0 5z" data-color="1" class="icon1"></path><path d="M72.5 97.5h-30A2.5 2.5 0 0 1 40 95V65a2.5 2.5 0 0 1 2.5-2.5h18.462a2.5 2.5 0 1 1 0 5H45v25h25V85a2.5 2.5 0 1 1 5 0v10a2.5 2.5 0 0 1-2.5 2.5z" data-color="1" class="icon1"></path><path d="M72.5 140h-30a2.5 2.5 0 0 1-2.5-2.5v-30a2.5 2.5 0 0 1 2.5-2.5h18.462a2.5 2.5 0 1 1 0 5H45v25h25v-7.5a2.5 2.5 0 1 1 5 0v10a2.5 2.5 0 0 1-2.5 2.5z" data-color="1" class="icon1"></path></g></g>
</svg>
</g><g opacity="1" transform="rotate(0 287.6493 175.711)">
<svg width="158.6258" height="120" x="287.6493" y="175.711" version="1.1" preserveAspectRatio="none" viewBox="1.4 -28.88 94.44 71.44">
  <g transform="matrix(1 0 0 1 0 0)" class="companyName"><path id="id-D6z1nYkh7" d="M26.08-28.32Q25.80-24.52 25.80-21.52L25.80-21.52Q25.80-19.64 25.92-18.48L25.92-18.48L25-18.48Q24.04-23.40 22.38-25.40Q20.72-27.40 17.84-27.40L17.84-27.40L16.92-27.40L16.92-4.56Q16.92-2.88 17.26-2.12Q17.60-1.36 18.46-1.10Q19.32-0.84 21.20-0.80L21.20-0.80L21.20 0Q16.16-0.12 13.60-0.12L13.60-0.12Q11.08-0.12 6.28 0L6.28 0L6.28-0.80Q8.16-0.84 9.02-1.10Q9.88-1.36 10.22-2.12Q10.56-2.88 10.56-4.56L10.56-4.56L10.56-27.40L9.68-27.40Q7.76-27.40 6.42-26.56Q5.08-25.72 4.12-23.78Q3.16-21.84 2.48-18.48L2.48-18.48L1.56-18.48Q1.68-19.64 1.68-21.52L1.68-21.52Q1.68-24.52 1.40-28.32L1.40-28.32Q5.04-28.20 13.76-28.20L13.76-28.20Q22.48-28.20 26.08-28.32L26.08-28.32Z M41.08-28.32L41.08-27.52Q39.64-27.44 38.98-27.20Q38.32-26.96 38.08-26.28Q37.84-25.60 37.84-24.08L37.84-24.08L37.84-3.76Q37.84-2.48 38.04-1.90Q38.24-1.32 38.74-1.12Q39.24-0.92 40.36-0.92L40.36-0.92L42.32-0.92Q45.04-0.92 47.02-3.36Q49-5.80 49.60-9.84L49.60-9.84L50.52-9.84Q50.40-8.48 50.40-6.32L50.40-6.32Q50.40-2.48 50.68 0L50.68 0Q47.96-0.12 41.52-0.12L41.52-0.12Q32.80-0.12 28.48 0L28.48 0L28.48-0.80Q29.80-0.88 30.42-1.12Q31.04-1.36 31.26-2.04Q31.48-2.72 31.48-4.24L31.48-4.24L31.48-24.08Q31.48-25.60 31.26-26.28Q31.04-26.96 30.42-27.20Q29.80-27.44 28.48-27.52L28.48-27.52L28.48-28.32Q30.52-28.20 34.80-28.20L34.80-28.20Q38.88-28.20 41.08-28.32L41.08-28.32Z M67.44-28.88Q69.84-28.88 71.52-28.20Q73.20-27.52 74.80-26.28L74.80-26.28Q75.24-25.92 75.56-25.92L75.56-25.92Q76.36-25.92 76.60-28.32L76.60-28.32L77.52-28.32Q77.36-25.60 77.36-18.64L77.36-18.64L76.44-18.64Q76.08-21.60 75.48-23.16Q74.88-24.72 73.44-25.88L73.44-25.88Q72.44-26.84 71.12-27.34Q69.80-27.84 68.36-27.84L68.36-27.84Q64.32-27.84 62.36-23.90Q60.40-19.96 60.40-14.08L60.40-14.08Q60.40-8.24 62.44-4.32Q64.48-0.40 68.52-0.40L68.52-0.40Q69.88-0.40 71.22-0.90Q72.56-1.40 73.48-2.36L73.48-2.36Q74.96-3.48 75.54-5.16Q76.12-6.84 76.44-10.08L76.44-10.08L77.36-10.08Q77.36-2.84 77.52 0L77.52 0L76.60 0Q76.48-1.28 76.26-1.82Q76.04-2.36 75.64-2.36L75.64-2.36Q75.32-2.36 74.80-2.04L74.80-2.04Q73-0.76 71.36-0.10Q69.72 0.56 67.40 0.56L67.40 0.56Q63.16 0.56 59.98-1.16Q56.80-2.88 55.04-6.14Q53.28-9.40 53.28-13.92L53.28-13.92Q53.28-18.32 55.08-21.72Q56.88-25.12 60.10-27Q63.32-28.88 67.44-28.88L67.44-28.88Z M27.72 13.68L27.72 14.48Q26.40 14.68 25.78 15.16Q25.16 15.64 24.94 16.68Q24.72 17.72 24.72 19.76L24.72 19.76L24.72 42.08L23.76 42.04L22.68 42.08L5.32 20.08L5.32 35.44Q5.32 37.80 5.56 38.90Q5.80 40 6.60 40.50Q7.40 41 9.20 41.20L9.20 41.20L9.20 42Q7.64 41.88 4.88 41.88L4.88 41.88Q2.68 41.88 1.40 42L1.40 42L1.40 41.20Q2.72 41 3.34 40.52Q3.96 40.04 4.18 39Q4.40 37.96 4.40 35.92L4.40 35.92L4.40 17.92Q4.40 16.40 4.18 15.72Q3.96 15.04 3.34 14.80Q2.72 14.56 1.40 14.48L1.40 14.48L1.40 13.68Q2.68 13.80 4.88 13.80L4.88 13.80Q6.88 13.80 8.32 13.68L8.32 13.68L23.80 32.76L23.80 20.24Q23.80 17.88 23.56 16.78Q23.32 15.68 22.52 15.18Q21.72 14.68 19.92 14.48L19.92 14.48L19.92 13.68Q21.48 13.80 24.24 13.80L24.24 13.80Q26.48 13.80 27.72 13.68L27.72 13.68Z M40.80 39.28Q44.08 39.28 46.08 36.08L46.08 36.08L46.80 36.32Q46 38.92 43.94 40.74Q41.88 42.56 38.80 42.56L38.80 42.56Q34.56 42.56 32.06 39.86Q29.56 37.16 29.56 31.88L29.56 31.88Q29.56 26.48 32.24 23.62Q34.92 20.76 39.36 20.76L39.36 20.76Q46.88 20.76 46.88 29.64L46.88 29.64L35.64 29.64Q35.60 30.24 35.60 31.52L35.60 31.52Q35.60 34.16 36.34 35.92Q37.08 37.68 38.26 38.48Q39.44 39.28 40.80 39.28L40.80 39.28ZM39.12 21.60Q37.68 21.60 36.74 23.38Q35.80 25.16 35.56 28.88L35.56 28.88L41.84 28.88Q41.92 25.72 41.22 23.66Q40.52 21.60 39.12 21.60L39.12 21.60Z M76.28 21.44Q78.32 21.44 79.32 21.32L79.32 21.32L79.32 22.12Q78.48 22.36 77.80 23.12Q77.12 23.88 76.60 25.56L76.60 25.56L71.28 42.08Q70.84 42.04 69.96 42.04L69.96 42.04Q69.12 42.04 68.68 42.08L68.68 42.08L63.24 27.24L58.80 42.08Q58.40 42.04 57.52 42.04L57.52 42.04Q56.64 42.04 56.20 42.08L56.20 42.08L49.88 24.40Q49.40 23 48.80 22.58Q48.20 22.16 47.56 22.16L47.56 22.16L47.56 21.32Q50.16 21.56 53.24 21.56L53.24 21.56Q55.24 21.56 58.44 21.32L58.44 21.32L58.44 22.16Q57.12 22.16 56.54 22.36Q55.96 22.56 55.96 23.32L55.96 23.32Q55.96 23.84 56.16 24.40L56.16 24.40L59.76 35.72L64.12 21.28L65.60 21.32L67.04 21.28L72.24 36.56L74.76 28.52Q75.32 26.64 75.32 25.48L75.32 25.48Q75.32 22.36 72.16 22.12L72.16 22.12L72.16 21.32Q74.04 21.44 76.28 21.44L76.28 21.44Z M87.72 20.76Q89.24 20.76 90.52 21.14Q91.80 21.52 92.48 22L92.48 22Q92.88 22.28 93.20 22.28L93.20 22.28Q93.56 22.28 93.82 21.90Q94.08 21.52 94.16 20.80L94.16 20.80L95.00 20.80Q94.84 22.84 94.84 27.84L94.84 27.84L94.00 27.84Q93.64 25.20 92.42 23.42Q91.20 21.64 88.88 21.64L88.88 21.64Q87.68 21.64 86.90 22.32Q86.12 23 86.12 24.20L86.12 24.20Q86.12 25.56 87.04 26.54Q87.96 27.52 89.92 28.92L89.92 28.92L91.08 29.76Q93.52 31.60 94.68 33.04Q95.84 34.48 95.84 36.64L95.84 36.64Q95.84 38.40 94.82 39.76Q93.80 41.12 92.08 41.84Q90.36 42.56 88.28 42.56L88.28 42.56Q86.08 42.56 84.52 41.72L84.52 41.72Q83.24 41.08 82.68 40.88L82.68 40.88Q82.28 40.76 81.98 41.14Q81.68 41.52 81.52 42.28L81.52 42.28L80.68 42.28Q80.84 40 80.84 34.28L80.84 34.28L81.68 34.28Q82.48 41.64 87.08 41.64L87.08 41.64Q88.24 41.64 89.06 40.94Q89.88 40.24 89.88 38.80L89.88 38.80Q89.88 37.68 89.38 36.80Q88.88 35.92 88.12 35.24Q87.36 34.56 85.84 33.36L85.84 33.36Q84.04 31.92 83.10 31.04Q82.16 30.16 81.50 28.96Q80.84 27.76 80.84 26.28L80.84 26.28Q80.84 23.72 82.84 22.24Q84.84 20.76 87.72 20.76L87.72 20.76Z"/></g>
</svg>
</g><g opacity="1" transform="rotate(0 254.6493 160.711)">
<svg width="3" height="150" x="254.6493" y="160.711" version="1.1" preserveAspectRatio="none" viewBox="0 0 3 150">
  <defs><rect x="0" y="0" width="3" height="150" rx="0px" ry="0px" id="id-tBXipXk0b1687095901232"></rect></defs><use class="companyName shapeStroke-str" style="stroke-width:0;" xlink:href="#id-tBXipXk0b1687095901232"></use>
</svg>
</g></svg></svg>