<svg version="1.1" preserveAspectRatio="none" xmlns="http://www.w3.org/2000/svg" width="500" height="500" viewBox="0 0 500 500"><rect width="100%" height="100%" fill="#FFFFFF" fill-opacity="1"/><svg viewBox="105.3623 266.0223 359.4254 79.5385" width="333" height="73.69073109468613" x="83.5px" y="213.1546px" xmlns="http://www.w3.org/2000/svg" xmlns:xlink="http://www.w3.org/1999/xlink" preserveAspectRatio="none"><defs></defs><style>.companyName {fill:#1e1e1e;fill-opacity:1;}.icon1 {fill:#EB3F3F;fill-opacity:1;}.icon3-str {stroke:#848383;stroke-opacity:1;}.shapeStroke-str {stroke:#1e1e1e;stroke-opacity:1;}</style><g opacity="1" transform="rotate(0 105.3623 295.5608)">
<svg width="359.4254" height="50" x="105.3623" y="295.5608" version="1.1" preserveAspectRatio="none" viewBox="0.16 -28.64 210.48000000000002 29.28">
  <g transform="matrix(1 0 0 1 0 0)" class="companyName"><path id="id-D6z1nYkh8" d="M8.36 0L8.36-20.68L0.16-20.68L0.16-28L26-28L26-20.68L17.80-20.68L17.80 0L8.36 0Z M28.44 0L28.44-28L37.88-28L37.88-7.32L50.52-7.32L50.52 0L28.44 0Z M67.20 0.64Q62.76 0.64 59.20-1.22Q55.64-3.08 53.62-6.42Q51.60-9.76 51.60-14L51.60-14Q51.60-18.24 53.62-21.58Q55.64-24.92 59.20-26.78Q62.76-28.64 67.20-28.64L67.20-28.64Q71.28-28.64 74.48-27.20Q77.68-25.76 79.76-23.04L79.76-23.04L73.80-17.72Q71.20-21 67.68-21L67.68-21Q64.72-21 62.92-19.10Q61.12-17.20 61.12-14L61.12-14Q61.12-10.80 62.92-8.90Q64.72-7 67.68-7L67.68-7Q71.20-7 73.80-10.28L73.80-10.28L79.76-4.96Q77.68-2.24 74.48-0.80Q71.28 0.64 67.20 0.64L67.20 0.64Z M112.88-28L122.08-28L122.08 0L114.32 0L103.68-12.72L103.68 0L94.48 0L94.48-28L102.24-28L112.88-15.28L112.88-28Z M149.64-10.96Q149.64-10.76 149.52-8.84L149.52-8.84L134.32-8.84Q134.80-7.60 135.92-6.94Q137.04-6.28 138.72-6.28L138.72-6.28Q140.16-6.28 141.14-6.64Q142.12-7 143.28-7.88L143.28-7.88L148-3.12Q144.80 0.40 138.44 0.40L138.44 0.40Q134.48 0.40 131.48-1.06Q128.48-2.52 126.84-5.12Q125.20-7.72 125.20-10.96L125.20-10.96Q125.20-14.24 126.82-16.82Q128.44-19.40 131.26-20.84Q134.08-22.28 137.60-22.28L137.60-22.28Q140.92-22.28 143.66-20.96Q146.40-19.64 148.02-17.08Q149.64-14.52 149.64-10.96L149.64-10.96ZM137.68-16.12Q136.28-16.12 135.36-15.36Q134.44-14.60 134.16-13.20L134.16-13.20L141.20-13.20Q140.92-14.56 140-15.34Q139.08-16.12 137.68-16.12L137.68-16.12Z M181.48-21.88L189.40-21.88L181.80 0L173 0L169.68-10.12L166.24 0L157.44 0L149.84-21.88L158.40-21.88L162.16-10.32L166.08-21.88L173.76-21.88L177.56-10.20L181.48-21.88Z M199.32 0.40Q196.52 0.40 193.80-0.20Q191.08-0.80 189.40-1.76L189.40-1.76L191.88-7.72Q193.40-6.80 195.48-6.28Q197.56-5.76 199.52-5.76L199.52-5.76Q201.08-5.76 201.70-6.02Q202.32-6.28 202.32-6.80L202.32-6.80Q202.32-7.32 201.54-7.52Q200.76-7.72 199.00-7.92L199.00-7.92Q196.32-8.24 194.44-8.74Q192.56-9.24 191.14-10.68Q189.72-12.12 189.72-14.80L189.72-14.80Q189.72-16.92 191.00-18.60Q192.28-20.28 194.82-21.28Q197.36-22.28 200.92-22.28L200.92-22.28Q203.40-22.28 205.78-21.82Q208.16-21.36 209.84-20.48L209.84-20.48L207.36-14.52Q204.48-16.12 201.04-16.12L201.04-16.12Q198.08-16.12 198.08-15.08L198.08-15.08Q198.08-14.56 198.88-14.34Q199.68-14.12 201.40-13.92L201.40-13.92Q204.08-13.60 205.94-13.08Q207.80-12.56 209.22-11.12Q210.64-9.68 210.64-7L210.64-7Q210.64-4.96 209.36-3.28Q208.08-1.60 205.52-0.60Q202.96 0.40 199.32 0.40L199.32 0.40Z"/></g>
</svg>
</g><g opacity="1" transform="rotate(0 105.3623 266.0223)">
<svg width="80" height="13.5385" x="105.3623" y="266.0223" version="1.1" preserveAspectRatio="none" viewBox="0 0 80 13.5385">
  <defs><rect x="0" y="0" width="80" height="13.5385" rx="0%" ry="0%" id="id-bTUYkkdP1687096211064"></rect></defs><use class="icon1 shapeStroke-str" style="stroke-width:0;" xlink:href="#id-bTUYkkdP1687096211064"></use>
</svg>
</g></svg></svg>